<svg xmlns="http://www.w3.org/2000/svg" width="265.552" height="342.107"><path d="M263.141 111.713s.052 103.18 0 112.044c-.322 54.602-53.24 115.914-130.286 115.962-77.289.05-130.468-60.223-130.468-115.581V2.387h260.754v109.326" fill="#fff" stroke-width="3.581"/><path d="M263.141 111.713s.052 103.18 0 112.044c-.322 54.602-53.24 115.914-130.286 115.962-77.289.05-130.468-60.223-130.468-115.581V2.387h260.754v109.326" fill="none" stroke="#231f20" stroke-width="4.77465473"/><path d="M260.788 63.429V4.58H4.244v58.848zm-54.88-14.334c-7.29-2.281-7.733-1.614-17.75-3.557-10.357-2.01-10.434.75-21.469-1.843-11.285-2.657-20.658-2.698-33.569-1.557-12.912 1.145-18.757.91-28.91 1.963-9.062.937-10.183 3.51-24.407 2.442-16.387-1.229-9.029-4.921-14.735-4.244-5.705.672-9.816 1.078-11.086 3.839-.467 1.015-1.173 2.859-3.624 3.61-1.745.535-3.162 1.243-4.482-1.214-1.32-2.464-5.412-2.844-.25-5 7.147-2.99-.249-10.136 3.46-11 3.707-.86 3.627 4.64 7.094 4.036 3.467-.61 9.172-1.281 9.172-1.281s6.65-17.99 24.73-21.755c23.353-4.865 4.774 1.687 2.077 3.02-2.699 1.328-26.747 16.25-9.952 19.99C99 40.277 102.855 24.141 114.105 17.548c11.252-6.594 21.704-6.214 23.711-6.224 2.619-.016-5.155 2.406-5.155 2.406-12.08 3.87-30.946 20.438-15.037 21.208 18.95.923 25.232-15.052 34.04-18.76 7.195-3.032 17.887-4.614 28.77-3.406 3.3.365-12.135 3.021-15.805 4.234-10.009 3.302-20.874 14.635-16.674 16.506 14.141 6.306 34.908-9.287 44.74-12.235 6.954-2.088 11.953-2.73 19.008-1.161 13.982 3.109-5.084.969-10.199 2.317-12.287 3.245-18.081 11.584-18.081 14.604 0 3.71 22.021 3.48 36.394 14.839 7.062 5.584-6.62-.506-13.909-2.782" fill="#231f20" stroke-width=".1"/><path d="M4.82 100.707h255.895V73.002H4.82z" fill="#ed1c24" stroke-width=".1"/><path d="M90.82 133.173c-15.895 0-24.424.904-29.206 4.264-2.714 1.938-4.393 6.332-4.91 10.597-.13 2.196-.259 5.04-.259 8.787 0 7.625.13 10.856 1.68 15.12.905 2.197 1.938 3.748 3.101 4.782 2.456 2.067 8.142 4.652 14.733 6.203 3.23.775 7.625 1.68 13.052 2.584 9.95 1.939 14.345 2.715 17.317 5.299 2.972 2.456 2.972 4.136 2.972 9.692 0 5.816 0 7.754-2.713 9.822-2.586 2.067-6.59 2.196-15.896 2.196-6.332 0-9.304.13-12.535-.774-1.551-.388-2.585-.906-3.23-1.422-2.068-2.326-2.844-5.557-2.586-12.665l-17.187 1.035c0 6.848 0 10.466.905 14.732 1.033 4.134 1.808 6.073 4.522 8.27 2.714 2.068 5.299 2.714 10.597 3.36 5.558.904 10.598.904 19.514.904 12.018 0 18.093 0 23.908-1.55 2.972-.904 5.17-1.81 6.461-2.714 2.585-1.938 4.652-7.237 5.04-12.406.13-2.584.259-6.203.259-10.855 0-6.85-.13-10.468-1.81-14.087-.774-1.809-1.68-3.23-2.713-4.134-2.068-1.939-7.496-4.136-12.665-5.299-2.584-.647-6.203-1.293-10.984-2.197-8.142-1.422-13.828-2.714-17.059-3.878-3.23-1.162-5.299-2.454-6.203-3.876-.904-1.422-1.293-3.748-1.293-7.108 0-5.169.905-8.27 2.585-9.434 1.68-1.163 6.591-1.808 14.603-1.808 7.755 0 12.407.645 14.087 2.066 1.68 1.422 2.454 5.17 2.454 11.502l17.188-1.034c0-8.658 0-12.793-1.938-17.058-.904-2.196-1.939-3.876-3.23-4.782-2.456-1.938-8.53-3.489-15.25-3.877-3.23-.128-7.754-.257-13.31-.257m82.447 42.257v12.795h18.61c0 11.372-1.034 17.058-3.36 20.548-1.422 1.68-5.04 2.972-8.271 3.36-1.68.128-4.006.128-6.979.128-6.59 0-9.433 0-12.664-1.68-1.68-.904-2.843-1.938-3.49-3.102-1.162-2.454-2.454-8.658-2.583-14.861-.13-3.101-.13-7.495-.13-13.052 0-5.687 0-10.08.13-13.181.13-3.102.386-6.075.904-8.788.517-2.843 1.033-4.782 1.68-5.944 1.421-2.198 5.04-4.395 8.53-4.524 1.808-.13 4.392-.259 7.623-.259 16.8 0 17.964 1.164 17.964 13.183l17.059-1.035c0-8.27 0-12.405-1.939-16.67-.905-2.198-1.939-3.878-3.36-4.782-2.715-2.068-8.788-3.748-15.896-4.136-3.49-.128-8.012-.257-13.828-.257-11.888 0-17.963.257-24.036 2.842-2.972 1.292-5.17 2.843-6.59 4.652-2.715 3.49-5.04 12.019-5.558 20.936a615.372 615.372 0 00-.259 17.963c0 7.495.13 13.57.388 18.092.26 4.523.904 8.659 1.81 12.407 1.033 3.748 2.197 6.59 3.618 8.4 2.972 3.618 9.434 6.461 16.542 6.978 3.49.387 8.27.516 14.085.516 11.89 0 17.964-.129 23.779-2.584 2.973-1.292 5.17-2.714 6.59-4.394 2.715-3.488 5.04-11.502 5.428-19.902.26-4.264.388-9.95.388-17.186v-6.463h-36.185M87.667 278.146v-25.234h-2.444l-.043.043-10.462 1.603.634 4.136 6.624-.844v20.296l-6.667.254v4.045h18.435V278.4zm32.537-10.89c1.728-.251 2.824-.842 3.33-1.727.547-.886.8-2.49.8-4.812 0-3.843-.167-5.402-1.811-6.709-.802-.631-1.898-1.054-3.247-1.222-1.308-.168-3.292-.253-5.867-.253-2.576 0-4.56.085-5.909.253-1.35.168-2.445.59-3.29 1.222a4.194 4.194 0 00-1.517 2.445c-.21.97-.294 2.364-.294 4.264 0 2.321.253 3.926.801 4.812.548.885 1.644 1.476 3.372 1.728-2.024.253-3.33.885-3.963 1.855-.59.97-.886 2.827-.886 5.53-.084 3.758.422 5.696 1.897 6.876.885.632 3.036 1.096 5.272 1.221 1.14.043 2.617.085 4.517.085 3.756 0 5.742-.042 7.64-.506.968-.21 1.643-.506 2.106-.801.885-.634 1.602-2.111 1.77-3.672.086-.802.127-1.9.127-3.207 0-2.743-.295-4.557-.927-5.526-.59-.97-1.897-1.602-3.92-1.855zm-6.795-10.425c2.322 0 3.756.212 4.348.676.591.464.887 1.605.887 3.42 0 1.9-.296 3.083-.887 3.547-.549.464-2.026.676-4.348.676s-3.8-.212-4.39-.676c-.592-.464-.887-1.647-.887-3.547 0-1.815.295-2.956.887-3.42.59-.464 2.068-.676 4.39-.676zm0 21.695c-2.66 0-4.349-.254-4.982-.719-.632-.506-.97-1.73-.97-3.714 0-2.07.338-3.378.971-3.885.675-.506 2.321-.76 4.981-.76 2.66 0 4.306.254 4.94.76.632.507.97 1.815.97 3.885 0 1.984-.338 3.208-.97 3.714-.634.465-2.28.72-4.94.72zm45.231-4.142v-4.045h-4.895v-17.427h-8.012l-12.532 17.765v3.707h14.854v4.1l-5.992.21v3.75h16.577v-3.75l-4.895-.21v-4.1zm-19.32-4.045l5.57-8.185c1.223-1.815 2.32-3.503 3.249-5.064-.043 2.322-.084 4.136-.084 5.444v7.805zm42.236-5.274c-4.56 0-6.67.464-8.232 1.686 0-3.249.043-4.981.38-6.543.17-.8.337-1.391.548-1.772.93-1.222 2.153-1.517 4.73-1.433 2.531 0 4.094.254 4.642.718.55.462.844 1.686.844 3.668l5.565-.338c0-2.656-.04-4.005-.589-5.397-.296-.718-.633-1.268-1.096-1.606-1.603-1.094-4.259-1.6-9.367-1.515-3.673 0-5.53.085-7.428.926-.969.38-1.644.884-2.108 1.477-.842 1.182-1.56 3.838-1.728 6.834-.084 1.478-.126 3.464-.126 5.908 0 2.488.042 4.472.084 5.95.084 1.478.296 2.829.632 4.095.337 1.224.717 2.151 1.138 2.742.886 1.137 2.951 2.023 5.103 2.19 1.097.127 2.575.17 4.433.17 4.263 0 6.584-.295 8.396-.97.886-.337 1.56-.885 1.94-1.643.843-1.518 1.096-3.122 1.096-6.373 0-3.546-.59-5.908-1.77-7.046-1.139-1.138-3.499-1.728-7.087-1.728zm-2.575 13.292c-2.66 0-3.546-.042-4.517-1.224-.97-1.183-1.097-2.956-1.14-6.967 1.561-.507 3.588-.76 6.036-.76 2.407 0 3.884.253 4.476.802.59.507.887 1.815.887 3.885 0 1.73-.339 2.913-1.056 3.462-.676.548-2.238.802-4.686.802" fill="#231f20" stroke-width=".1"/></svg>